<?xml version="1.0" standalone="no"?>
<!DOCTYPE svg PUBLIC "-//W3C//DTD SVG 20010904//EN"
 "http://www.w3.org/TR/2001/REC-SVG-20010904/DTD/svg10.dtd">
<svg version="1.0" xmlns="http://www.w3.org/2000/svg"
 width="200.000000pt" height="200.000000pt" viewBox="0 0 200.000000 200.000000"
 preserveAspectRatio="xMidYMid meet">
<metadata>
Created by potrace 1.14, written by Peter Selinger 2001-2017
</metadata>
<g transform="translate(0.000000,200.000000) scale(0.100000,-0.100000)"
fill="#000000" stroke="none">
<path d="M870 1984 c-230 -36 -412 -130 -572 -296 -118 -122 -189 -239 -233
-383 -24 -80 -28 -99 -41 -185 -13 -96 -6 -256 15 -328 5 -18 10 -33 9 -35 -2
-11 30 -105 55 -161 58 -133 186 -295 306 -389 82 -65 209 -128 325 -162 429
-124 879 48 1124 430 38 60 94 193 116 275 21 81 25 118 25 246 0 99 -5 174
-15 215 -52 226 -150 385 -347 564 -77 70 -302 178 -412 199 -121 23 -253 26
-355 10z"/>
</g>
</svg>
